<svg xmlns="http://www.w3.org/2000/svg" xmlns:xlink="http://www.w3.org/1999/xlink" aria-hidden="true" role="img" class="iconify iconify--logos" width="31.88" height="32" preserveAspectRatio="xMidYMid meet" viewBox="0 0 256 257"><defs><linearGradient id="IconifyId181e6fdb0784d18ec0" x1="-0.828%" x2="57.636%" y1="7.652%" y2="78.411%"><stop offset="0%" stop-color="#41D1FF"></stop><stop offset="100%" stop-color="#BD34FE"></stop></linearGradient><linearGradient id="IconifyId181e6fdb0784d18ec1" x1="43.376%" x2="100%" y1="2.242%" y2="100%"><stop offset="0%" stop-color="#FFEA83"></stop><stop offset="8.333%" stop-color="#FFDD35"></stop><stop offset="100%" stop-color="#FFA800"></stop></linearGradient></defs><path fill="url(#IconifyId181e6fdb0784d18ec0)" d="M255.153 37.938L134.897 252.99c-2.483 4.434-8.813 4.434-11.296 0L1.7 37.938C-.934 33.235 2.454 27.42 7.828 27.42H250.7c5.374 0 8.762 5.815 6.128 10.518Z"></path><path fill="url(#IconifyId181e6fdb0784d18ec1)" d="M185.432.063L96.84 31.78a2.13 2.13 0 00-1.325 1.815l-9.5 101.127a2.13 2.13 0 002.32 2.306l17.125-2.028a2.13 2.13 0 012.33 2.17l-6.797 108.513c-.15 2.38 3.033 3.447 4.194 1.397L204.015 39.53a2.13 2.13 0 00-1.157-3.187L141.735 9.062a2.13 2.13 0 01-1.314-1.954V2.133A2.13 2.13 0 00138.29.027a2.13 2.13 0 00-2.128.031l-30.12 17.653a2.13 2.13 0 01-2.13 0l-30.12-17.653a2.13 2.13 0 00-3.326 1.83V7.12c0 1.125-.89 2.062-2.013 2.126L37.126 10.51a2.13 2.13 0 00-1.996 2.128v12.23c0 1.125-.89 2.062-2.013 2.125L2.13 28.52a2.13 2.13 0 00-2.13 2.13v21.26a2.13 2.13 0 002.13 2.13h21.26a2.13 2.13 0 002.13-2.13V30.65a2.13 2.13 0 012.13-2.13H48.91a2.13 2.13 0 002.13-2.13V2.13A2.13 2.13 0 0048.91 0H2.13A2.13 2.13 0 000 2.13v21.26a2.13 2.13 0 104.26 0V4.26H44.65v19.13a2.13 2.13 0 01-2.13 2.13H23.39a2.13 2.13 0 00-2.13 2.13v21.26a2.13 2.13 0 002.13 2.13H44.65V71.04c0 1.125-.89 2.062-2.013 2.126L21.39 74.69a2.13 2.13 0 00-1.996 2.128v21.26a2.13 2.13 0 002.13 2.13h21.26a2.13 2.13 0 100-4.26H23.52V78.95l19.13-1.52c5.37-.426 9.61-4.78 9.61-10.16V46.81h21.26v31.94c0 1.125-.89 2.062-2.013 2.126L50.26 82.4c-5.37.426-9.61 4.78-9.61 10.16v21.26a2.13 2.13 0 002.13 2.13h21.26a2.13 2.13 0 100-4.26H44.91V94.5l19.13-1.52c5.37-.426 9.61-4.78 9.61-10.16V62.24h21.26v31.94c0 1.125-.89 2.062-2.013 2.126L71.39 97.83c-5.37.426-9.61 4.78-9.61 10.16v21.26a2.13 2.13 0 002.13 2.13h21.26a2.13 2.13 0 100-4.26H66.04v-13.83l19.13-1.52c5.37-.426 9.61-4.78 9.61-10.16V77.67h21.26v31.94c0 1.125-.89 2.062-2.013 2.126l-21.26 1.52c-5.37.426-9.61 4.78-9.61 10.16v21.26a2.13 2.13 0 002.13 2.13h21.26a2.13 2.13 0 100-4.26H87.17v-13.83l19.13-1.52c5.37-.426 9.61-4.78 9.61-10.16V93.1h21.26z"></path></svg>
